<mxfile host="app.diagrams.net" agent="Mozilla/5.0 (Windows NT 10.0; Win64; x64) AppleWebKit/537.36 (KHTML, like Gecko) Chrome/141.0.0.0 Safari/537.36" scale="1" border="15" version="28.2.8">
  <diagram name="JSON 구조 1" id="json-1">
    <mxGraphModel dx="4772" dy="1554" grid="1" gridSize="10" guides="1" tooltips="1" connect="1" arrows="1" fold="1" page="1" pageScale="1" pageWidth="1920" pageHeight="1080" background="light-dark(#FFFFFF,#FFFFFF)" math="0" shadow="0">
      <root>
        <mxCell id="0" />
        <mxCell id="1" parent="0" />
        <mxCell id="title" value="ENROLLMENT_DATA JSON 구조 (1/3) - 성적 구성 및 출석" style="text;html=1;strokeColor=none;fillColor=none;align=center;verticalAlign=middle;whiteSpace=wrap;rounded=0;fontSize=36;fontStyle=1;fontColor=light-dark(#1A1A1A,#000000);" parent="1" vertex="1">
          <mxGeometry x="-1780" y="40" width="1550" height="70" as="geometry" />
        </mxCell>
        <mxCell id="json-box1-title" value="1️⃣ gradeConfig (성적 구성 설정)" style="rounded=1;whiteSpace=wrap;html=1;fillColor=#60a917;strokeColor=#2D7600;strokeWidth=4;fontSize=24;fontColor=#ffffff;fontStyle=1;align=center;" parent="1" vertex="1">
          <mxGeometry x="-1780" y="150" width="730" height="70" as="geometry" />
        </mxCell>
        <mxCell id="json-box1" value="" style="rounded=1;whiteSpace=wrap;html=1;fillColor=#008a00;strokeColor=#005700;strokeWidth=4;align=left;verticalAlign=top;fontColor=#ffffff;arcSize=6;" parent="1" vertex="1">
          <mxGeometry x="-1780" y="240" width="730" height="630" as="geometry" />
        </mxCell>
        <mxCell id="json-content1" value="&lt;font face=&quot;Courier New&quot; style=&quot;font-size: 22px;&quot;&gt;&lt;font style=&quot;color: light-dark(rgb(0, 0, 0), rgb(0, 0, 0));&quot;&gt;{&lt;br&gt;  &quot;attendanceMaxScore&quot;: 120,&lt;br&gt;  &lt;span&gt;// 출석 만점&lt;/span&gt;&lt;br&gt;&lt;br&gt;  &quot;latePenaltyPerSession&quot;: 0.75,&lt;br&gt;  &lt;span&gt;// 지각 1회당 감점&lt;/span&gt;&lt;/font&gt;&lt;br&gt;&lt;br&gt;  &lt;font style=&quot;color: light-dark(rgb(245, 124, 0), rgb(93, 47, 0));&quot;&gt;&lt;span style=&quot;font-weight: bold; color: rgb(245, 124, 0);&quot;&gt;&quot;assignmentTotalScore&quot;: 157&lt;/span&gt;,&lt;br&gt;  &lt;span style=&quot;font-weight: bold; color: rgb(245, 124, 0);&quot;&gt;// 과제 총점 (ASSIGNMENT_EXTENDED_TBL에서 자동 계산)&lt;/span&gt;&lt;br&gt;&lt;br&gt;  &lt;span style=&quot;font-weight: bold; color: rgb(245, 124, 0);&quot;&gt;&quot;totalMaxScore&quot;: 277&lt;/span&gt;,&lt;br&gt;  &lt;span style=&quot;font-weight: bold; color: rgb(245, 124, 0);&quot;&gt;// 전체 만점 (출석 만점 + 과제 총점, 자동 계산)&lt;/span&gt;&lt;/font&gt;&lt;br&gt;&lt;br&gt;&lt;font style=&quot;color: light-dark(rgb(0, 0, 0), rgb(0, 0, 0));&quot;&gt;  &quot;gradeDistribution&quot;: {&lt;br&gt;    &quot;A&quot;: 30, &quot;B&quot;: 40, &quot;C&quot;: 20, &quot;D&quot;: 10&lt;br&gt;  },&lt;br&gt;  &lt;span&gt;// 상대평가 등급 분포 (60% 이상 학생 대상)&lt;/span&gt;&lt;br&gt;&lt;br&gt;  &quot;configuredAt&quot;: &quot;2025-10-29 10:38:20&quot;&lt;br&gt;}&lt;/font&gt;&lt;/font&gt;" style="text;html=1;strokeColor=none;fillColor=none;align=left;verticalAlign=top;whiteSpace=wrap;rounded=0;fontSize=22;fontColor=#212121;" parent="1" vertex="1">
          <mxGeometry x="-1753" y="268" width="653" height="600" as="geometry" />
        </mxCell>
        <mxCell id="json-box2-title" value="2️⃣ attendance (출석 데이터)" style="rounded=1;whiteSpace=wrap;html=1;fillColor=#1ba1e2;strokeColor=#006EAF;strokeWidth=4;fontSize=24;fontColor=#ffffff;fontStyle=1;align=center;" parent="1" vertex="1">
          <mxGeometry x="-890" y="150" width="830" height="70" as="geometry" />
        </mxCell>
        <mxCell id="json-box2" value="" style="rounded=1;whiteSpace=wrap;html=1;fillColor=#0050ef;strokeColor=#001DBC;strokeWidth=4;align=left;verticalAlign=top;arcSize=6;fontColor=#ffffff;" parent="1" vertex="1">
          <mxGeometry x="-891" y="240" width="831" height="1180" as="geometry" />
        </mxCell>
        <mxCell id="json-content2" value="&lt;font face=&quot;Courier New&quot; style=&quot;font-size: 22px;&quot;&gt;&lt;font style=&quot;color: light-dark(rgb(0, 0, 0), rgb(0, 0, 0));&quot;&gt;{&lt;br&gt;  &quot;summary&quot;: {&lt;br&gt;    &quot;presentCount&quot;: 50,&lt;br&gt;    &lt;span&gt;// 출석 횟수&lt;/span&gt;&lt;br&gt;    &quot;lateCount&quot;: 5,&lt;br&gt;    &lt;span&gt;// 지각 횟수&lt;/span&gt;&lt;br&gt;&quot;absentCount&quot;: 2,&lt;br&gt;    &lt;span&gt;// 결석 횟수&lt;/span&gt;&lt;br&gt;&quot;totalSessions&quot;: 80,&lt;br&gt;    &lt;span&gt;// 전체 세션 수&lt;/span&gt;&lt;br&gt;&quot;attendanceRate&quot;: 68.75,&lt;br&gt;    &lt;span&gt;// 출석률 (%)&lt;/span&gt;&lt;br&gt;&quot;pendingCount&quot;: 0&lt;br&gt;    &lt;span&gt;// 승인 대기 중인 출석 요청 수&lt;/span&gt;&lt;br&gt;  },&lt;br&gt;&quot;sessions&quot;: [&lt;br&gt;    &lt;span&gt;// 교수가 승인한 출석 기록들&lt;/span&gt;&lt;br&gt;    {&lt;br&gt;      &quot;sessionNumber&quot;: 1,&lt;br&gt;      &quot;status&quot;: &quot;PRESENT&quot;,&lt;br&gt;      &lt;span&gt;// 출석&lt;/span&gt;&lt;br&gt;      &quot;requestDate&quot;: &quot;2025-03-10 14:25:00&quot;,&lt;br&gt;      &quot;approvedAt&quot;: &quot;2025-03-10 14:30:00&quot;,&lt;br&gt;      &quot;approvedBy&quot;: 23&lt;br&gt;      &lt;span&gt;// 교수 USER_IDX&lt;/span&gt;&lt;br&gt;    },&lt;br&gt;    {&lt;br&gt;      &quot;sessionNumber&quot;: 2,&lt;br&gt;      &quot;status&quot;: &quot;LATE&quot;,&lt;br&gt;      &lt;span&gt;// 지각&lt;/span&gt;&lt;br&gt;      &quot;requestDate&quot;: &quot;2025-03-12 14:35:00&quot;,&lt;br&gt;      &quot;approvedAt&quot;: &quot;2025-03-12 14:40:00&quot;,&lt;br&gt;      &quot;approvedBy&quot;: 23&lt;br&gt;    }&lt;/font&gt;&lt;br&gt;    &lt;span style=&quot;font-weight: bold;&quot;&gt;&lt;font style=&quot;color: light-dark(rgb(0, 0, 0), rgb(0, 139, 0));&quot;&gt;// ... 더 많은 세션들 (총 80개 세션 중 승인된 기록만 저장)&lt;/font&gt;&lt;/span&gt;&lt;br&gt;&lt;font style=&quot;color: light-dark(rgb(0, 0, 0), rgb(0, 0, 0));&quot;&gt;  ],&lt;br&gt;  &quot;pendingRequests&quot;: []&lt;br&gt;  &lt;span&gt;// 승인 대기 중인 출석 요청 (현재 비어있음)&lt;/span&gt;&lt;br&gt;}&lt;/font&gt;&lt;/font&gt;" style="text;html=1;strokeColor=none;fillColor=none;align=left;verticalAlign=top;whiteSpace=wrap;rounded=0;fontSize=22;fontColor=#212121;" parent="1" vertex="1">
          <mxGeometry x="-860" y="260" width="720" height="1140" as="geometry" />
        </mxCell>
      </root>
    </mxGraphModel>
  </diagram>
</mxfile>
